<svg width="804" height="473" viewBox="0 0 804 473" fill="none" xmlns="http://www.w3.org/2000/svg">
<g filter="url(#filter0_d)">
<rect x="10" y="11" width="774" height="442.631" rx="3" fill="#FFFDFF"/>
<path d="M309.494 372.203V380.904C309.488 382.111 309.107 383.099 308.352 383.866C307.602 384.634 306.582 385.064 305.293 385.158L304.845 385.176C303.444 385.176 302.328 384.798 301.496 384.042C300.664 383.286 300.242 382.246 300.23 380.922V372.203H301.9V380.869C301.9 381.795 302.155 382.516 302.665 383.031C303.175 383.541 303.901 383.796 304.845 383.796C305.8 383.796 306.529 383.541 307.033 383.031C307.543 382.521 307.798 381.804 307.798 380.878V372.203H309.494ZM313.44 375.49L313.493 376.686C314.22 375.771 315.169 375.314 316.341 375.314C318.351 375.314 319.364 376.448 319.382 378.716V385H317.756V378.707C317.75 378.021 317.592 377.515 317.281 377.187C316.977 376.858 316.499 376.694 315.849 376.694C315.321 376.694 314.858 376.835 314.46 377.116C314.062 377.397 313.751 377.767 313.528 378.224V385H311.902V375.49H313.44ZM327.371 382.478C327.371 382.038 327.204 381.698 326.87 381.458C326.542 381.212 325.965 381.001 325.139 380.825C324.318 380.649 323.665 380.438 323.179 380.192C322.698 379.946 322.341 379.653 322.106 379.313C321.878 378.974 321.764 378.569 321.764 378.101C321.764 377.321 322.092 376.662 322.748 376.123C323.41 375.584 324.254 375.314 325.279 375.314C326.357 375.314 327.23 375.593 327.898 376.149C328.572 376.706 328.909 377.418 328.909 378.285H327.274C327.274 377.84 327.084 377.456 326.703 377.134C326.328 376.812 325.854 376.65 325.279 376.65C324.688 376.65 324.225 376.779 323.891 377.037C323.557 377.295 323.39 377.632 323.39 378.048C323.39 378.44 323.545 378.736 323.855 378.936C324.166 379.135 324.726 379.325 325.534 379.507C326.349 379.688 327.008 379.905 327.512 380.157C328.016 380.409 328.388 380.714 328.628 381.071C328.874 381.423 328.997 381.854 328.997 382.363C328.997 383.213 328.657 383.896 327.978 384.411C327.298 384.921 326.416 385.176 325.332 385.176C324.57 385.176 323.896 385.041 323.311 384.771C322.725 384.502 322.265 384.127 321.931 383.646C321.603 383.16 321.438 382.636 321.438 382.073H323.064C323.094 382.618 323.311 383.052 323.715 383.374C324.125 383.69 324.664 383.849 325.332 383.849C325.947 383.849 326.439 383.726 326.809 383.479C327.184 383.228 327.371 382.894 327.371 382.478ZM336.986 384.06C336.354 384.804 335.425 385.176 334.2 385.176C333.187 385.176 332.413 384.883 331.88 384.297C331.353 383.705 331.086 382.832 331.08 381.678V375.49H332.706V381.634C332.706 383.075 333.292 383.796 334.464 383.796C335.706 383.796 336.532 383.333 336.942 382.407V375.49H338.568V385H337.021L336.986 384.06ZM344.861 383.849C345.441 383.849 345.948 383.673 346.382 383.321C346.815 382.97 347.056 382.53 347.103 382.003H348.641C348.611 382.548 348.424 383.066 348.078 383.559C347.732 384.051 347.27 384.443 346.689 384.736C346.115 385.029 345.506 385.176 344.861 385.176C343.566 385.176 342.535 384.745 341.768 383.884C341.006 383.017 340.625 381.833 340.625 380.333V380.061C340.625 379.135 340.795 378.312 341.135 377.591C341.475 376.87 341.961 376.311 342.594 375.912C343.232 375.514 343.985 375.314 344.853 375.314C345.919 375.314 346.804 375.634 347.507 376.272C348.216 376.911 348.594 377.74 348.641 378.76H347.103C347.056 378.145 346.821 377.641 346.399 377.248C345.983 376.85 345.468 376.65 344.853 376.65C344.026 376.65 343.385 376.949 342.928 377.547C342.477 378.139 342.251 378.997 342.251 380.122V380.43C342.251 381.525 342.477 382.369 342.928 382.961C343.379 383.553 344.023 383.849 344.861 383.849ZM354.283 383.849C354.863 383.849 355.37 383.673 355.804 383.321C356.237 382.97 356.478 382.53 356.524 382.003H358.062C358.033 382.548 357.846 383.066 357.5 383.559C357.154 384.051 356.691 384.443 356.111 384.736C355.537 385.029 354.928 385.176 354.283 385.176C352.988 385.176 351.957 384.745 351.189 383.884C350.428 383.017 350.047 381.833 350.047 380.333V380.061C350.047 379.135 350.217 378.312 350.557 377.591C350.896 376.87 351.383 376.311 352.016 375.912C352.654 375.514 353.407 375.314 354.274 375.314C355.341 375.314 356.226 375.634 356.929 376.272C357.638 376.911 358.016 377.74 358.062 378.76H356.524C356.478 378.145 356.243 377.641 355.821 377.248C355.405 376.85 354.89 376.65 354.274 376.65C353.448 376.65 352.807 376.949 352.35 377.547C351.898 378.139 351.673 378.997 351.673 380.122V380.43C351.673 381.525 351.898 382.369 352.35 382.961C352.801 383.553 353.445 383.849 354.283 383.849ZM363.837 385.176C362.548 385.176 361.499 384.754 360.69 383.91C359.882 383.061 359.478 381.927 359.478 380.509V380.21C359.478 379.267 359.656 378.426 360.014 377.688C360.377 376.943 360.881 376.363 361.525 375.947C362.176 375.525 362.879 375.314 363.635 375.314C364.871 375.314 365.832 375.722 366.518 376.536C367.203 377.351 367.546 378.517 367.546 380.034V380.711H361.104C361.127 381.648 361.399 382.407 361.921 382.987C362.448 383.562 363.116 383.849 363.925 383.849C364.499 383.849 364.985 383.731 365.384 383.497C365.782 383.263 366.131 382.952 366.43 382.565L367.423 383.339C366.626 384.563 365.431 385.176 363.837 385.176ZM363.635 376.65C362.979 376.65 362.428 376.891 361.982 377.371C361.537 377.846 361.262 378.514 361.156 379.375H365.92V379.252C365.873 378.426 365.65 377.787 365.252 377.336C364.854 376.879 364.314 376.65 363.635 376.65ZM374.973 382.478C374.973 382.038 374.806 381.698 374.472 381.458C374.144 381.212 373.566 381.001 372.74 380.825C371.92 380.649 371.267 380.438 370.78 380.192C370.3 379.946 369.942 379.653 369.708 379.313C369.479 378.974 369.365 378.569 369.365 378.101C369.365 377.321 369.693 376.662 370.35 376.123C371.012 375.584 371.855 375.314 372.881 375.314C373.959 375.314 374.832 375.593 375.5 376.149C376.174 376.706 376.511 377.418 376.511 378.285H374.876C374.876 377.84 374.686 377.456 374.305 377.134C373.93 376.812 373.455 376.65 372.881 376.65C372.289 376.65 371.826 376.779 371.492 377.037C371.158 377.295 370.991 377.632 370.991 378.048C370.991 378.44 371.146 378.736 371.457 378.936C371.768 379.135 372.327 379.325 373.136 379.507C373.95 379.688 374.609 379.905 375.113 380.157C375.617 380.409 375.989 380.714 376.229 381.071C376.476 381.423 376.599 381.854 376.599 382.363C376.599 383.213 376.259 383.896 375.579 384.411C374.899 384.921 374.018 385.176 372.934 385.176C372.172 385.176 371.498 385.041 370.912 384.771C370.326 384.502 369.866 384.127 369.532 383.646C369.204 383.16 369.04 382.636 369.04 382.073H370.666C370.695 382.618 370.912 383.052 371.316 383.374C371.727 383.69 372.266 383.849 372.934 383.849C373.549 383.849 374.041 383.726 374.41 383.479C374.785 383.228 374.973 382.894 374.973 382.478ZM384.254 382.478C384.254 382.038 384.087 381.698 383.753 381.458C383.425 381.212 382.848 381.001 382.021 380.825C381.201 380.649 380.548 380.438 380.062 380.192C379.581 379.946 379.224 379.653 378.989 379.313C378.761 378.974 378.646 378.569 378.646 378.101C378.646 377.321 378.975 376.662 379.631 376.123C380.293 375.584 381.137 375.314 382.162 375.314C383.24 375.314 384.113 375.593 384.781 376.149C385.455 376.706 385.792 377.418 385.792 378.285H384.157C384.157 377.84 383.967 377.456 383.586 377.134C383.211 376.812 382.736 376.65 382.162 376.65C381.57 376.65 381.107 376.779 380.773 377.037C380.439 377.295 380.272 377.632 380.272 378.048C380.272 378.44 380.428 378.736 380.738 378.936C381.049 379.135 381.608 379.325 382.417 379.507C383.231 379.688 383.891 379.905 384.395 380.157C384.898 380.409 385.271 380.714 385.511 381.071C385.757 381.423 385.88 381.854 385.88 382.363C385.88 383.213 385.54 383.896 384.86 384.411C384.181 384.921 383.299 385.176 382.215 385.176C381.453 385.176 380.779 385.041 380.193 384.771C379.607 384.502 379.147 384.127 378.813 383.646C378.485 383.16 378.321 382.636 378.321 382.073H379.947C379.977 382.618 380.193 383.052 380.598 383.374C381.008 383.69 381.547 383.849 382.215 383.849C382.83 383.849 383.322 383.726 383.691 383.479C384.066 383.228 384.254 382.894 384.254 382.478ZM388.798 385V376.747H387.295V375.49H388.798V374.515C388.798 373.495 389.07 372.707 389.615 372.15C390.16 371.594 390.931 371.315 391.927 371.315C392.302 371.315 392.674 371.365 393.043 371.465L392.955 372.783C392.68 372.73 392.387 372.704 392.076 372.704C391.549 372.704 391.142 372.859 390.854 373.17C390.567 373.475 390.424 373.914 390.424 374.488V375.49H392.454V376.747H390.424V385H388.798ZM400.127 384.06C399.494 384.804 398.565 385.176 397.341 385.176C396.327 385.176 395.554 384.883 395.021 384.297C394.493 383.705 394.227 382.832 394.221 381.678V375.49H395.847V381.634C395.847 383.075 396.433 383.796 397.604 383.796C398.847 383.796 399.673 383.333 400.083 382.407V375.49H401.709V385H400.162L400.127 384.06ZM405.954 385H404.328V371.5H405.954V385ZM408.6 384.147C408.6 383.866 408.682 383.632 408.846 383.444C409.016 383.257 409.268 383.163 409.602 383.163C409.936 383.163 410.188 383.257 410.357 383.444C410.533 383.632 410.621 383.866 410.621 384.147C410.621 384.417 410.533 384.643 410.357 384.824C410.188 385.006 409.936 385.097 409.602 385.097C409.268 385.097 409.016 385.006 408.846 384.824C408.682 384.643 408.6 384.417 408.6 384.147ZM422.407 373.592H418.294V385H416.615V373.592H412.511V372.203H422.407V373.592ZM427.979 376.949C427.733 376.908 427.467 376.888 427.18 376.888C426.113 376.888 425.39 377.342 425.009 378.25V385H423.383V375.49H424.965L424.991 376.589C425.524 375.739 426.28 375.314 427.259 375.314C427.575 375.314 427.815 375.355 427.979 375.438V376.949ZM432.752 382.618L434.967 375.49H436.707L432.884 386.468C432.292 388.05 431.352 388.841 430.062 388.841L429.755 388.814L429.148 388.7V387.382L429.588 387.417C430.139 387.417 430.566 387.306 430.871 387.083C431.182 386.86 431.437 386.453 431.636 385.861L431.996 384.895L428.604 375.49H430.379L432.752 382.618ZM448.502 385C448.408 384.812 448.332 384.479 448.273 383.998C447.518 384.783 446.615 385.176 445.566 385.176C444.629 385.176 443.858 384.912 443.255 384.385C442.657 383.852 442.358 383.178 442.358 382.363C442.358 381.373 442.733 380.605 443.483 380.061C444.239 379.51 445.3 379.234 446.665 379.234H448.247V378.487C448.247 377.919 448.077 377.468 447.737 377.134C447.397 376.794 446.896 376.624 446.234 376.624C445.654 376.624 445.168 376.771 444.775 377.063C444.383 377.356 444.187 377.711 444.187 378.127H442.552C442.552 377.652 442.719 377.195 443.053 376.756C443.393 376.311 443.85 375.959 444.424 375.701C445.004 375.443 445.64 375.314 446.331 375.314C447.427 375.314 448.285 375.59 448.906 376.141C449.527 376.686 449.85 377.438 449.873 378.399V382.776C449.873 383.649 449.984 384.344 450.207 384.859V385H448.502ZM445.804 383.761C446.313 383.761 446.797 383.629 447.254 383.365C447.711 383.102 448.042 382.759 448.247 382.337V380.386H446.973C444.98 380.386 443.984 380.969 443.984 382.135C443.984 382.645 444.154 383.043 444.494 383.33C444.834 383.617 445.271 383.761 445.804 383.761ZM452.035 380.166C452.035 378.684 452.378 377.506 453.063 376.633C453.749 375.754 454.657 375.314 455.788 375.314C456.948 375.314 457.854 375.725 458.504 376.545L458.583 375.49H460.068V384.771C460.068 386.002 459.702 386.972 458.97 387.681C458.243 388.39 457.265 388.744 456.034 388.744C455.349 388.744 454.678 388.598 454.021 388.305C453.365 388.012 452.864 387.61 452.519 387.101L453.362 386.125C454.06 386.986 454.912 387.417 455.92 387.417C456.711 387.417 457.326 387.194 457.766 386.749C458.211 386.304 458.434 385.677 458.434 384.868V384.051C457.783 384.801 456.896 385.176 455.771 385.176C454.657 385.176 453.755 384.728 453.063 383.831C452.378 382.935 452.035 381.713 452.035 380.166ZM453.67 380.351C453.67 381.423 453.89 382.267 454.329 382.882C454.769 383.491 455.384 383.796 456.175 383.796C457.2 383.796 457.953 383.33 458.434 382.398V378.057C457.936 377.148 457.188 376.694 456.192 376.694C455.401 376.694 454.783 377.002 454.338 377.617C453.893 378.232 453.67 379.144 453.67 380.351ZM468.4 385C468.307 384.812 468.23 384.479 468.172 383.998C467.416 384.783 466.514 385.176 465.465 385.176C464.527 385.176 463.757 384.912 463.153 384.385C462.556 383.852 462.257 383.178 462.257 382.363C462.257 381.373 462.632 380.605 463.382 380.061C464.138 379.51 465.198 379.234 466.563 379.234H468.146V378.487C468.146 377.919 467.976 377.468 467.636 377.134C467.296 376.794 466.795 376.624 466.133 376.624C465.553 376.624 465.066 376.771 464.674 377.063C464.281 377.356 464.085 377.711 464.085 378.127H462.45C462.45 377.652 462.617 377.195 462.951 376.756C463.291 376.311 463.748 375.959 464.322 375.701C464.902 375.443 465.538 375.314 466.229 375.314C467.325 375.314 468.184 375.59 468.805 376.141C469.426 376.686 469.748 377.438 469.771 378.399V382.776C469.771 383.649 469.883 384.344 470.105 384.859V385H468.4ZM465.702 383.761C466.212 383.761 466.695 383.629 467.152 383.365C467.609 383.102 467.94 382.759 468.146 382.337V380.386H466.871C464.879 380.386 463.883 380.969 463.883 382.135C463.883 382.645 464.053 383.043 464.393 383.33C464.732 383.617 465.169 383.761 465.702 383.761ZM474.087 385H472.461V375.49H474.087V385ZM472.329 372.968C472.329 372.704 472.408 372.481 472.566 372.3C472.73 372.118 472.971 372.027 473.287 372.027C473.604 372.027 473.844 372.118 474.008 372.3C474.172 372.481 474.254 372.704 474.254 372.968C474.254 373.231 474.172 373.451 474.008 373.627C473.844 373.803 473.604 373.891 473.287 373.891C472.971 373.891 472.73 373.803 472.566 373.627C472.408 373.451 472.329 373.231 472.329 372.968ZM478.235 375.49L478.288 376.686C479.015 375.771 479.964 375.314 481.136 375.314C483.146 375.314 484.159 376.448 484.177 378.716V385H482.551V378.707C482.545 378.021 482.387 377.515 482.076 377.187C481.771 376.858 481.294 376.694 480.644 376.694C480.116 376.694 479.653 376.835 479.255 377.116C478.856 377.397 478.546 377.767 478.323 378.224V385H476.697V375.49H478.235Z" fill="black"/>
<path d="M336.438 312.281C336.438 316.76 335.646 320.688 334.062 324.062C332.479 327.438 330.208 330.042 327.25 331.875C324.312 333.708 320.938 334.625 317.125 334.625C313.354 334.625 309.99 333.719 307.031 331.906C304.073 330.094 301.781 327.51 300.156 324.156C298.531 320.781 297.708 316.906 297.688 312.531V310.281C297.688 305.802 298.49 301.865 300.094 298.469C301.719 295.052 304 292.438 306.938 290.625C309.896 288.792 313.271 287.875 317.062 287.875C320.854 287.875 324.219 288.792 327.156 290.625C330.115 292.438 332.396 295.052 334 298.469C335.625 301.865 336.438 305.792 336.438 310.25V312.281ZM326.938 310.219C326.938 305.448 326.083 301.823 324.375 299.344C322.667 296.865 320.229 295.625 317.062 295.625C313.917 295.625 311.49 296.854 309.781 299.312C308.073 301.75 307.208 305.333 307.188 310.062V312.281C307.188 316.927 308.042 320.531 309.75 323.094C311.458 325.656 313.917 326.938 317.125 326.938C320.271 326.938 322.688 325.708 324.375 323.25C326.062 320.771 326.917 317.167 326.938 312.438V310.219ZM341.25 316.781C341.25 313.427 341.896 310.438 343.188 307.812C344.479 305.188 346.333 303.156 348.75 301.719C351.188 300.281 354.01 299.562 357.219 299.562C361.781 299.562 365.5 300.958 368.375 303.75C371.271 306.542 372.885 310.333 373.219 315.125L373.281 317.438C373.281 322.625 371.833 326.792 368.938 329.938C366.042 333.062 362.156 334.625 357.281 334.625C352.406 334.625 348.51 333.062 345.594 329.938C342.698 326.812 341.25 322.562 341.25 317.188V316.781ZM350.281 317.438C350.281 320.646 350.885 323.104 352.094 324.812C353.302 326.5 355.031 327.344 357.281 327.344C359.469 327.344 361.177 326.51 362.406 324.844C363.635 323.156 364.25 320.469 364.25 316.781C364.25 313.635 363.635 311.198 362.406 309.469C361.177 307.74 359.448 306.875 357.219 306.875C355.01 306.875 353.302 307.74 352.094 309.469C350.885 311.177 350.281 313.833 350.281 317.438ZM409.281 317.406C409.281 322.615 408.094 326.792 405.719 329.938C403.365 333.062 400.177 334.625 396.156 334.625C392.74 334.625 389.979 333.438 387.875 331.062V347H378.844V300.188H387.219L387.531 303.5C389.719 300.875 392.573 299.562 396.094 299.562C400.26 299.562 403.5 301.104 405.812 304.188C408.125 307.271 409.281 311.521 409.281 316.938V317.406ZM400.25 316.75C400.25 313.604 399.688 311.177 398.562 309.469C397.458 307.76 395.844 306.906 393.719 306.906C390.885 306.906 388.938 307.99 387.875 310.156V324C388.979 326.229 390.948 327.344 393.781 327.344C398.094 327.344 400.25 323.812 400.25 316.75ZM433.219 324.656C433.219 323.552 432.667 322.688 431.562 322.062C430.479 321.417 428.729 320.844 426.312 320.344C418.271 318.656 414.25 315.24 414.25 310.094C414.25 307.094 415.49 304.594 417.969 302.594C420.469 300.573 423.729 299.562 427.75 299.562C432.042 299.562 435.469 300.573 438.031 302.594C440.615 304.615 441.906 307.24 441.906 310.469H432.875C432.875 309.177 432.458 308.115 431.625 307.281C430.792 306.427 429.49 306 427.719 306C426.198 306 425.021 306.344 424.188 307.031C423.354 307.719 422.938 308.594 422.938 309.656C422.938 310.656 423.406 311.469 424.344 312.094C425.302 312.698 426.906 313.229 429.156 313.688C431.406 314.125 433.302 314.625 434.844 315.188C439.615 316.938 442 319.969 442 324.281C442 327.365 440.677 329.865 438.031 331.781C435.385 333.677 431.969 334.625 427.781 334.625C424.948 334.625 422.427 334.125 420.219 333.125C418.031 332.104 416.312 330.719 415.062 328.969C413.812 327.198 413.188 325.292 413.188 323.25H421.75C421.833 324.854 422.427 326.083 423.531 326.938C424.635 327.792 426.115 328.219 427.969 328.219C429.698 328.219 431 327.896 431.875 327.25C432.771 326.583 433.219 325.719 433.219 324.656ZM457.031 320.031H449.531L448.469 288.5H458.094L457.031 320.031ZM453.281 324.969C454.802 324.969 456.021 325.417 456.938 326.312C457.875 327.208 458.344 328.354 458.344 329.75C458.344 331.125 457.875 332.26 456.938 333.156C456.021 334.052 454.802 334.5 453.281 334.5C451.781 334.5 450.562 334.052 449.625 333.156C448.708 332.26 448.25 331.125 448.25 329.75C448.25 328.375 448.708 327.24 449.625 326.344C450.562 325.427 451.781 324.969 453.281 324.969ZM474.469 320.031H466.969L465.906 288.5H475.531L474.469 320.031ZM470.719 324.969C472.24 324.969 473.458 325.417 474.375 326.312C475.312 327.208 475.781 328.354 475.781 329.75C475.781 331.125 475.312 332.26 474.375 333.156C473.458 334.052 472.24 334.5 470.719 334.5C469.219 334.5 468 334.052 467.062 333.156C466.146 332.26 465.688 331.125 465.688 329.75C465.688 328.375 466.146 327.24 467.062 326.344C468 325.427 469.219 324.969 470.719 324.969ZM491.906 320.031H484.406L483.344 288.5H492.969L491.906 320.031ZM488.156 324.969C489.677 324.969 490.896 325.417 491.812 326.312C492.75 327.208 493.219 328.354 493.219 329.75C493.219 331.125 492.75 332.26 491.812 333.156C490.896 334.052 489.677 334.5 488.156 334.5C486.656 334.5 485.438 334.052 484.5 333.156C483.583 332.26 483.125 331.125 483.125 329.75C483.125 328.375 483.583 327.24 484.5 326.344C485.438 325.427 486.656 324.969 488.156 324.969Z" fill="#ED0505"/>
<rect x="10" y="11" width="774" height="221.719" rx="3" fill="#7008F4" fill-opacity="0.2"/>
<path d="M710.631 58.1804L708.601 56.1504L700.553 64.1985L692.505 56.1504L690.475 58.1804L698.523 66.2285L690.475 74.2766L692.505 76.3066L700.553 68.2585L708.601 76.3066L710.631 74.2766L702.583 66.2285L710.631 58.1804Z" fill="black" fill-opacity="0.54"/>
<path d="M337.496 79.5312H444.143L390.869 112.865L337.496 79.5312ZM453.214 82.4082V109.137C450.027 107.842 446.574 107.129 442.981 106.926C442.388 106.852 441.804 106.729 441.195 106.728C430.104 106.727 420.303 112.395 414.509 120.985C414.507 120.988 414.511 120.996 414.509 121C413.353 122.715 412.347 124.544 411.533 126.47C411.531 126.474 411.534 126.481 411.533 126.485C410.719 128.411 410.077 130.428 409.648 132.522C409.647 132.527 409.649 132.532 409.648 132.537C409.22 134.631 408.996 136.796 408.996 139.014C408.996 139.019 408.996 139.023 408.996 139.028C408.996 139.053 409.01 139.075 409.01 139.099C409.018 140.658 409.185 142.179 409.464 143.677C410.055 147.725 411.396 151.497 413.347 154.916H328.469V82.4382L388.956 120.222C390.101 120.936 391.652 120.936 392.797 120.222L453.214 82.4082ZM441.195 113.998C442.751 113.998 444.255 114.181 445.731 114.452C446.126 114.526 446.515 114.628 446.907 114.721C447.947 114.965 448.955 115.287 449.94 115.657C450.423 115.84 450.914 115.996 451.385 116.209C452.59 116.75 453.75 117.377 454.843 118.094C454.958 118.167 455.076 118.233 455.198 118.293C461.807 122.784 466.139 130.376 466.139 139.027C466.139 152.897 455.007 164.041 441.195 164.041C433.996 164.041 427.572 160.982 423.026 156.119C422.903 155.986 422.807 155.829 422.686 155.694C421.752 154.653 420.889 153.559 420.149 152.391C420.047 152.229 419.979 152.046 419.88 151.881C419.189 150.733 418.563 149.55 418.066 148.31C417.881 147.844 417.77 147.343 417.613 146.864C417.278 145.856 416.939 144.85 416.734 143.803C416.458 142.361 416.3 140.873 416.28 139.353C416.279 139.242 416.252 139.138 416.252 139.027C416.252 139.022 416.252 139.017 416.252 139.012C416.253 137.279 416.43 135.585 416.762 133.953C417.093 132.325 417.581 130.756 418.208 129.262C418.209 129.258 418.206 129.252 418.208 129.247C418.836 127.753 419.612 126.338 420.504 125.01C420.506 125.007 420.502 124.999 420.504 124.995C424.98 118.345 432.567 113.997 441.195 113.997L441.195 113.998ZM441.153 122.388C439.253 122.411 437.545 124.159 437.567 126.059V143.434C437.54 145.351 439.278 147.114 441.195 147.114C443.112 147.114 444.85 145.351 444.823 143.434V126.059C444.846 124.131 443.081 122.366 441.153 122.388ZM440.827 148.352C438.927 148.449 437.286 150.265 437.383 152.165C437.479 154.064 439.295 155.705 441.195 155.608C443.112 155.635 444.875 153.897 444.875 151.98C444.875 150.063 443.112 148.325 441.195 148.352C441.072 148.346 440.949 148.346 440.827 148.352Z" fill="#ED0505"/>
</g>
<defs>
<filter id="filter0_d" x="0" y="0" width="804" height="472.631" filterUnits="userSpaceOnUse" color-interpolation-filters="sRGB">
<feFlood flood-opacity="0" result="BackgroundImageFix"/>
<feColorMatrix in="SourceAlpha" type="matrix" values="0 0 0 0 0 0 0 0 0 0 0 0 0 0 0 0 0 0 127 0"/>
<feOffset dx="5" dy="4"/>
<feGaussianBlur stdDeviation="7.5"/>
<feColorMatrix type="matrix" values="0 0 0 0 0 0 0 0 0 0 0 0 0 0 0 0 0 0 0.1 0"/>
<feBlend mode="normal" in2="BackgroundImageFix" result="effect1_dropShadow"/>
<feBlend mode="normal" in="SourceGraphic" in2="effect1_dropShadow" result="shape"/>
</filter>
</defs>
</svg>
