<svg width="817" height="481" viewBox="0 0 817 481" fill="none" xmlns="http://www.w3.org/2000/svg">
<g filter="url(#filter0_d)">
<rect x="10" y="11" width="787" height="450.066" rx="3" fill="#FFFDFF"/>
<path d="M267.921 385.296C266.474 384.88 265.419 384.37 264.757 383.767C264.101 383.157 263.772 382.407 263.772 381.517C263.772 380.509 264.174 379.677 264.977 379.021C265.785 378.358 266.834 378.027 268.123 378.027C269.002 378.027 269.784 378.197 270.47 378.537C271.161 378.877 271.694 379.346 272.069 379.943C272.45 380.541 272.641 381.194 272.641 381.903H270.944C270.944 381.13 270.698 380.523 270.206 380.084C269.714 379.639 269.02 379.416 268.123 379.416C267.291 379.416 266.641 379.601 266.172 379.97C265.709 380.333 265.478 380.84 265.478 381.49C265.478 382.012 265.697 382.454 266.137 382.817C266.582 383.175 267.335 383.503 268.396 383.802C269.462 384.101 270.294 384.432 270.892 384.795C271.495 385.152 271.94 385.571 272.228 386.052C272.521 386.532 272.667 387.098 272.667 387.748C272.667 388.785 272.263 389.617 271.454 390.244C270.646 390.865 269.564 391.176 268.211 391.176C267.332 391.176 266.512 391.009 265.75 390.675C264.988 390.335 264.399 389.872 263.983 389.286C263.573 388.7 263.368 388.035 263.368 387.291H265.064C265.064 388.064 265.349 388.677 265.917 389.128C266.491 389.573 267.256 389.796 268.211 389.796C269.102 389.796 269.784 389.614 270.259 389.251C270.733 388.888 270.971 388.393 270.971 387.766C270.971 387.139 270.751 386.655 270.312 386.315C269.872 385.97 269.075 385.63 267.921 385.296ZM280.454 390.06C279.821 390.804 278.893 391.176 277.668 391.176C276.654 391.176 275.881 390.883 275.348 390.297C274.82 389.705 274.554 388.832 274.548 387.678V381.49H276.174V387.634C276.174 389.075 276.76 389.796 277.932 389.796C279.174 389.796 280 389.333 280.41 388.407V381.49H282.036V391H280.489L280.454 390.06ZM288.329 389.849C288.909 389.849 289.416 389.673 289.85 389.321C290.283 388.97 290.523 388.53 290.57 388.003H292.108C292.079 388.548 291.892 389.066 291.546 389.559C291.2 390.051 290.737 390.443 290.157 390.736C289.583 391.029 288.974 391.176 288.329 391.176C287.034 391.176 286.003 390.745 285.235 389.884C284.474 389.017 284.093 387.833 284.093 386.333V386.061C284.093 385.135 284.263 384.312 284.603 383.591C284.942 382.87 285.429 382.311 286.062 381.912C286.7 381.514 287.453 381.314 288.32 381.314C289.387 381.314 290.271 381.634 290.975 382.272C291.684 382.911 292.062 383.74 292.108 384.76H290.57C290.523 384.145 290.289 383.641 289.867 383.248C289.451 382.85 288.936 382.65 288.32 382.65C287.494 382.65 286.853 382.949 286.396 383.547C285.944 384.139 285.719 384.997 285.719 386.122V386.43C285.719 387.525 285.944 388.369 286.396 388.961C286.847 389.553 287.491 389.849 288.329 389.849ZM297.751 389.849C298.331 389.849 298.838 389.673 299.271 389.321C299.705 388.97 299.945 388.53 299.992 388.003H301.53C301.501 388.548 301.313 389.066 300.968 389.559C300.622 390.051 300.159 390.443 299.579 390.736C299.005 391.029 298.396 391.176 297.751 391.176C296.456 391.176 295.425 390.745 294.657 389.884C293.896 389.017 293.515 387.833 293.515 386.333V386.061C293.515 385.135 293.685 384.312 294.024 383.591C294.364 382.87 294.851 382.311 295.483 381.912C296.122 381.514 296.875 381.314 297.742 381.314C298.809 381.314 299.693 381.634 300.396 382.272C301.105 382.911 301.483 383.74 301.53 384.76H299.992C299.945 384.145 299.711 383.641 299.289 383.248C298.873 382.85 298.357 382.65 297.742 382.65C296.916 382.65 296.274 382.949 295.817 383.547C295.366 384.139 295.141 384.997 295.141 386.122V386.43C295.141 387.525 295.366 388.369 295.817 388.961C296.269 389.553 296.913 389.849 297.751 389.849ZM307.305 391.176C306.016 391.176 304.967 390.754 304.158 389.91C303.35 389.061 302.945 387.927 302.945 386.509V386.21C302.945 385.267 303.124 384.426 303.481 383.688C303.845 382.943 304.349 382.363 304.993 381.947C305.644 381.525 306.347 381.314 307.103 381.314C308.339 381.314 309.3 381.722 309.985 382.536C310.671 383.351 311.014 384.517 311.014 386.034V386.711H304.571C304.595 387.648 304.867 388.407 305.389 388.987C305.916 389.562 306.584 389.849 307.393 389.849C307.967 389.849 308.453 389.731 308.852 389.497C309.25 389.263 309.599 388.952 309.897 388.565L310.891 389.339C310.094 390.563 308.898 391.176 307.305 391.176ZM307.103 382.65C306.446 382.65 305.896 382.891 305.45 383.371C305.005 383.846 304.729 384.514 304.624 385.375H309.388V385.252C309.341 384.426 309.118 383.787 308.72 383.336C308.321 382.879 307.782 382.65 307.103 382.65ZM318.44 388.478C318.44 388.038 318.273 387.698 317.939 387.458C317.611 387.212 317.034 387.001 316.208 386.825C315.388 386.649 314.734 386.438 314.248 386.192C313.768 385.946 313.41 385.653 313.176 385.313C312.947 384.974 312.833 384.569 312.833 384.101C312.833 383.321 313.161 382.662 313.817 382.123C314.479 381.584 315.323 381.314 316.349 381.314C317.427 381.314 318.3 381.593 318.968 382.149C319.642 382.706 319.979 383.418 319.979 384.285H318.344C318.344 383.84 318.153 383.456 317.772 383.134C317.397 382.812 316.923 382.65 316.349 382.65C315.757 382.65 315.294 382.779 314.96 383.037C314.626 383.295 314.459 383.632 314.459 384.048C314.459 384.44 314.614 384.736 314.925 384.936C315.235 385.135 315.795 385.325 316.604 385.507C317.418 385.688 318.077 385.905 318.581 386.157C319.085 386.409 319.457 386.714 319.697 387.071C319.943 387.423 320.066 387.854 320.066 388.363C320.066 389.213 319.727 389.896 319.047 390.411C318.367 390.921 317.485 391.176 316.401 391.176C315.64 391.176 314.966 391.041 314.38 390.771C313.794 390.502 313.334 390.127 313 389.646C312.672 389.16 312.508 388.636 312.508 388.073H314.134C314.163 388.618 314.38 389.052 314.784 389.374C315.194 389.69 315.733 389.849 316.401 389.849C317.017 389.849 317.509 389.726 317.878 389.479C318.253 389.228 318.44 388.894 318.44 388.478ZM327.722 388.478C327.722 388.038 327.555 387.698 327.221 387.458C326.893 387.212 326.315 387.001 325.489 386.825C324.669 386.649 324.016 386.438 323.529 386.192C323.049 385.946 322.691 385.653 322.457 385.313C322.229 384.974 322.114 384.569 322.114 384.101C322.114 383.321 322.442 382.662 323.099 382.123C323.761 381.584 324.604 381.314 325.63 381.314C326.708 381.314 327.581 381.593 328.249 382.149C328.923 382.706 329.26 383.418 329.26 384.285H327.625C327.625 383.84 327.435 383.456 327.054 383.134C326.679 382.812 326.204 382.65 325.63 382.65C325.038 382.65 324.575 382.779 324.241 383.037C323.907 383.295 323.74 383.632 323.74 384.048C323.74 384.44 323.896 384.736 324.206 384.936C324.517 385.135 325.076 385.325 325.885 385.507C326.699 385.688 327.358 385.905 327.862 386.157C328.366 386.409 328.738 386.714 328.979 387.071C329.225 387.423 329.348 387.854 329.348 388.363C329.348 389.213 329.008 389.896 328.328 390.411C327.648 390.921 326.767 391.176 325.683 391.176C324.921 391.176 324.247 391.041 323.661 390.771C323.075 390.502 322.615 390.127 322.281 389.646C321.953 389.16 321.789 388.636 321.789 388.073H323.415C323.444 388.618 323.661 389.052 324.065 389.374C324.476 389.69 325.015 389.849 325.683 389.849C326.298 389.849 326.79 389.726 327.159 389.479C327.534 389.228 327.722 388.894 327.722 388.478ZM332.266 391V382.747H330.763V381.49H332.266V380.515C332.266 379.495 332.538 378.707 333.083 378.15C333.628 377.594 334.398 377.315 335.395 377.315C335.77 377.315 336.142 377.365 336.511 377.465L336.423 378.783C336.147 378.73 335.854 378.704 335.544 378.704C335.017 378.704 334.609 378.859 334.322 379.17C334.035 379.475 333.892 379.914 333.892 380.488V381.49H335.922V382.747H333.892V391H332.266ZM343.595 390.06C342.962 390.804 342.033 391.176 340.809 391.176C339.795 391.176 339.021 390.883 338.488 390.297C337.961 389.705 337.694 388.832 337.688 387.678V381.49H339.314V387.634C339.314 389.075 339.9 389.796 341.072 389.796C342.314 389.796 343.141 389.333 343.551 388.407V381.49H345.177V391H343.63L343.595 390.06ZM349.422 391H347.796V377.5H349.422V391ZM353.799 391H352.173V377.5H353.799V391ZM359.521 388.618L361.735 381.49H363.476L359.652 392.468C359.061 394.05 358.12 394.841 356.831 394.841L356.523 394.814L355.917 394.7V393.382L356.356 393.417C356.907 393.417 357.335 393.306 357.64 393.083C357.95 392.86 358.205 392.453 358.404 391.861L358.765 390.895L355.372 381.49H357.147L359.521 388.618ZM369.004 386.166C369.004 384.707 369.35 383.535 370.041 382.65C370.732 381.76 371.638 381.314 372.757 381.314C373.87 381.314 374.752 381.695 375.402 382.457V377.5H377.028V391H375.534L375.455 389.98C374.805 390.777 373.899 391.176 372.739 391.176C371.638 391.176 370.738 390.725 370.041 389.822C369.35 388.92 369.004 387.742 369.004 386.289V386.166ZM370.63 386.351C370.63 387.429 370.853 388.272 371.298 388.882C371.743 389.491 372.358 389.796 373.144 389.796C374.175 389.796 374.928 389.333 375.402 388.407V384.039C374.916 383.143 374.169 382.694 373.161 382.694C372.364 382.694 371.743 383.002 371.298 383.617C370.853 384.232 370.63 385.144 370.63 386.351ZM379.129 386.157C379.129 385.226 379.311 384.388 379.674 383.644C380.043 382.899 380.553 382.325 381.203 381.921C381.859 381.517 382.606 381.314 383.444 381.314C384.739 381.314 385.785 381.763 386.582 382.659C387.385 383.556 387.786 384.748 387.786 386.236V386.351C387.786 387.276 387.607 388.108 387.25 388.847C386.898 389.579 386.392 390.15 385.729 390.561C385.073 390.971 384.317 391.176 383.462 391.176C382.173 391.176 381.127 390.728 380.324 389.831C379.527 388.935 379.129 387.748 379.129 386.271V386.157ZM380.764 386.351C380.764 387.405 381.007 388.252 381.493 388.891C381.985 389.529 382.642 389.849 383.462 389.849C384.288 389.849 384.944 389.526 385.431 388.882C385.917 388.231 386.16 387.323 386.16 386.157C386.16 385.114 385.911 384.271 385.413 383.626C384.921 382.976 384.265 382.65 383.444 382.65C382.642 382.65 381.994 382.97 381.502 383.608C381.01 384.247 380.764 385.161 380.764 386.351ZM391.363 381.49L391.416 382.686C392.143 381.771 393.092 381.314 394.264 381.314C396.273 381.314 397.287 382.448 397.305 384.716V391H395.679V384.707C395.673 384.021 395.515 383.515 395.204 383.187C394.899 382.858 394.422 382.694 393.771 382.694C393.244 382.694 392.781 382.835 392.383 383.116C391.984 383.397 391.674 383.767 391.451 384.224V391H389.825V381.49H391.363ZM403.703 391.176C402.414 391.176 401.365 390.754 400.557 389.91C399.748 389.061 399.344 387.927 399.344 386.509V386.21C399.344 385.267 399.522 384.426 399.88 383.688C400.243 382.943 400.747 382.363 401.392 381.947C402.042 381.525 402.745 381.314 403.501 381.314C404.737 381.314 405.698 381.722 406.384 382.536C407.069 383.351 407.412 384.517 407.412 386.034V386.711H400.97C400.993 387.648 401.266 388.407 401.787 388.987C402.314 389.562 402.982 389.849 403.791 389.849C404.365 389.849 404.852 389.731 405.25 389.497C405.648 389.263 405.997 388.952 406.296 388.565L407.289 389.339C406.492 390.563 405.297 391.176 403.703 391.176ZM403.501 382.65C402.845 382.65 402.294 382.891 401.849 383.371C401.403 383.846 401.128 384.514 401.022 385.375H405.786V385.252C405.739 384.426 405.517 383.787 405.118 383.336C404.72 382.879 404.181 382.65 403.501 382.65ZM409.337 390.147C409.337 389.866 409.419 389.632 409.583 389.444C409.753 389.257 410.005 389.163 410.339 389.163C410.673 389.163 410.925 389.257 411.095 389.444C411.271 389.632 411.358 389.866 411.358 390.147C411.358 390.417 411.271 390.643 411.095 390.824C410.925 391.006 410.673 391.097 410.339 391.097C410.005 391.097 409.753 391.006 409.583 390.824C409.419 390.643 409.337 390.417 409.337 390.147ZM421.527 386.966L421.773 388.653L422.134 387.133L424.665 378.203H426.089L428.559 387.133L428.91 388.68L429.183 386.957L431.169 378.203H432.865L429.763 391H428.225L425.588 381.675L425.386 380.699L425.184 381.675L422.45 391H420.912L417.818 378.203H419.506L421.527 386.966ZM438.156 391.176C436.867 391.176 435.818 390.754 435.01 389.91C434.201 389.061 433.797 387.927 433.797 386.509V386.21C433.797 385.267 433.976 384.426 434.333 383.688C434.696 382.943 435.2 382.363 435.845 381.947C436.495 381.525 437.198 381.314 437.954 381.314C439.19 381.314 440.151 381.722 440.837 382.536C441.522 383.351 441.865 384.517 441.865 386.034V386.711H435.423C435.446 387.648 435.719 388.407 436.24 388.987C436.768 389.562 437.436 389.849 438.244 389.849C438.818 389.849 439.305 389.731 439.703 389.497C440.102 389.263 440.45 388.952 440.749 388.565L441.742 389.339C440.945 390.563 439.75 391.176 438.156 391.176ZM437.954 382.65C437.298 382.65 436.747 382.891 436.302 383.371C435.856 383.846 435.581 384.514 435.476 385.375H440.239V385.252C440.192 384.426 439.97 383.787 439.571 383.336C439.173 382.879 438.634 382.65 437.954 382.65ZM456.64 388.759L458.468 381.49H460.094L457.325 391H456.007L453.695 383.793L451.445 391H450.127L447.367 381.49H448.984L450.856 388.609L453.071 381.49H454.381L456.64 388.759ZM463.521 391H461.896V381.49H463.521V391ZM461.764 378.968C461.764 378.704 461.843 378.481 462.001 378.3C462.165 378.118 462.405 378.027 462.722 378.027C463.038 378.027 463.278 378.118 463.442 378.3C463.606 378.481 463.688 378.704 463.688 378.968C463.688 379.231 463.606 379.451 463.442 379.627C463.278 379.803 463.038 379.891 462.722 379.891C462.405 379.891 462.165 379.803 462.001 379.627C461.843 379.451 461.764 379.231 461.764 378.968ZM467.898 391H466.272V377.5H467.898V391ZM472.275 391H470.649V377.5H472.275V391ZM483.947 382.949C483.701 382.908 483.435 382.888 483.147 382.888C482.081 382.888 481.357 383.342 480.977 384.25V391H479.351V381.49H480.933L480.959 382.589C481.492 381.739 482.248 381.314 483.227 381.314C483.543 381.314 483.783 381.355 483.947 381.438V382.949ZM489.221 391.176C487.932 391.176 486.883 390.754 486.074 389.91C485.266 389.061 484.861 387.927 484.861 386.509V386.21C484.861 385.267 485.04 384.426 485.397 383.688C485.761 382.943 486.265 382.363 486.909 381.947C487.56 381.525 488.263 381.314 489.019 381.314C490.255 381.314 491.216 381.722 491.901 382.536C492.587 383.351 492.93 384.517 492.93 386.034V386.711H486.487C486.511 387.648 486.783 388.407 487.305 388.987C487.832 389.562 488.5 389.849 489.309 389.849C489.883 389.849 490.369 389.731 490.768 389.497C491.166 389.263 491.515 388.952 491.813 388.565L492.807 389.339C492.01 390.563 490.814 391.176 489.221 391.176ZM489.019 382.65C488.362 382.65 487.812 382.891 487.366 383.371C486.921 383.846 486.646 384.514 486.54 385.375H491.304V385.252C491.257 384.426 491.034 383.787 490.636 383.336C490.237 382.879 489.698 382.65 489.019 382.65ZM500.356 388.478C500.356 388.038 500.189 387.698 499.855 387.458C499.527 387.212 498.95 387.001 498.124 386.825C497.304 386.649 496.65 386.438 496.164 386.192C495.684 385.946 495.326 385.653 495.092 385.313C494.863 384.974 494.749 384.569 494.749 384.101C494.749 383.321 495.077 382.662 495.733 382.123C496.396 381.584 497.239 381.314 498.265 381.314C499.343 381.314 500.216 381.593 500.884 382.149C501.558 382.706 501.895 383.418 501.895 384.285H500.26C500.26 383.84 500.069 383.456 499.688 383.134C499.313 382.812 498.839 382.65 498.265 382.65C497.673 382.65 497.21 382.779 496.876 383.037C496.542 383.295 496.375 383.632 496.375 384.048C496.375 384.44 496.53 384.736 496.841 384.936C497.151 385.135 497.711 385.325 498.52 385.507C499.334 385.688 499.993 385.905 500.497 386.157C501.001 386.409 501.373 386.714 501.613 387.071C501.859 387.423 501.982 387.854 501.982 388.363C501.982 389.213 501.643 389.896 500.963 390.411C500.283 390.921 499.401 391.176 498.317 391.176C497.556 391.176 496.882 391.041 496.296 390.771C495.71 390.502 495.25 390.127 494.916 389.646C494.588 389.16 494.424 388.636 494.424 388.073H496.05C496.079 388.618 496.296 389.052 496.7 389.374C497.11 389.69 497.649 389.849 498.317 389.849C498.933 389.849 499.425 389.726 499.794 389.479C500.169 389.228 500.356 388.894 500.356 388.478ZM512.134 386.351C512.134 387.798 511.803 388.964 511.141 389.849C510.479 390.733 509.582 391.176 508.451 391.176C507.297 391.176 506.389 390.81 505.727 390.077V394.656H504.101V381.49H505.586L505.665 382.545C506.327 381.725 507.247 381.314 508.425 381.314C509.567 381.314 510.47 381.745 511.132 382.606C511.8 383.468 512.134 384.666 512.134 386.201V386.351ZM510.508 386.166C510.508 385.094 510.279 384.247 509.822 383.626C509.365 383.005 508.738 382.694 507.941 382.694C506.957 382.694 506.219 383.131 505.727 384.004V388.548C506.213 389.415 506.957 389.849 507.959 389.849C508.738 389.849 509.356 389.541 509.813 388.926C510.276 388.305 510.508 387.385 510.508 386.166ZM513.777 386.157C513.777 385.226 513.959 384.388 514.322 383.644C514.691 382.899 515.201 382.325 515.852 381.921C516.508 381.517 517.255 381.314 518.093 381.314C519.388 381.314 520.434 381.763 521.23 382.659C522.033 383.556 522.435 384.748 522.435 386.236V386.351C522.435 387.276 522.256 388.108 521.898 388.847C521.547 389.579 521.04 390.15 520.378 390.561C519.722 390.971 518.966 391.176 518.11 391.176C516.821 391.176 515.775 390.728 514.973 389.831C514.176 388.935 513.777 387.748 513.777 386.271V386.157ZM515.412 386.351C515.412 387.405 515.655 388.252 516.142 388.891C516.634 389.529 517.29 389.849 518.11 389.849C518.937 389.849 519.593 389.526 520.079 388.882C520.565 388.231 520.809 387.323 520.809 386.157C520.809 385.114 520.56 384.271 520.062 383.626C519.569 382.976 518.913 382.65 518.093 382.65C517.29 382.65 516.643 382.97 516.15 383.608C515.658 384.247 515.412 385.161 515.412 386.351ZM526.012 381.49L526.064 382.686C526.791 381.771 527.74 381.314 528.912 381.314C530.922 381.314 531.936 382.448 531.953 384.716V391H530.327V384.707C530.321 384.021 530.163 383.515 529.853 383.187C529.548 382.858 529.07 382.694 528.42 382.694C527.893 382.694 527.43 382.835 527.031 383.116C526.633 383.397 526.322 383.767 526.1 384.224V391H524.474V381.49H526.012ZM534.01 386.166C534.01 384.707 534.355 383.535 535.047 382.65C535.738 381.76 536.644 381.314 537.763 381.314C538.876 381.314 539.758 381.695 540.408 382.457V377.5H542.034V391H540.54L540.461 389.98C539.811 390.777 538.905 391.176 537.745 391.176C536.644 391.176 535.744 390.725 535.047 389.822C534.355 388.92 534.01 387.742 534.01 386.289V386.166ZM535.636 386.351C535.636 387.429 535.858 388.272 536.304 388.882C536.749 389.491 537.364 389.796 538.149 389.796C539.181 389.796 539.934 389.333 540.408 388.407V384.039C539.922 383.143 539.175 382.694 538.167 382.694C537.37 382.694 536.749 383.002 536.304 383.617C535.858 384.232 535.636 385.144 535.636 386.351ZM351.32 409.759L353.148 402.49H354.774L352.006 412H350.688L348.376 404.793L346.126 412H344.808L342.048 402.49H343.665L345.537 409.609L347.752 402.49H349.062L351.32 409.759ZM358.202 412H356.576V402.49H358.202V412ZM356.444 399.968C356.444 399.704 356.523 399.481 356.682 399.3C356.846 399.118 357.086 399.027 357.402 399.027C357.719 399.027 357.959 399.118 358.123 399.3C358.287 399.481 358.369 399.704 358.369 399.968C358.369 400.231 358.287 400.451 358.123 400.627C357.959 400.803 357.719 400.891 357.402 400.891C357.086 400.891 356.846 400.803 356.682 400.627C356.523 400.451 356.444 400.231 356.444 399.968ZM363.019 400.188V402.49H364.794V403.747H363.019V409.645C363.019 410.025 363.098 410.312 363.256 410.506C363.414 410.693 363.684 410.787 364.064 410.787C364.252 410.787 364.51 410.752 364.838 410.682V412C364.41 412.117 363.994 412.176 363.59 412.176C362.863 412.176 362.315 411.956 361.946 411.517C361.577 411.077 361.393 410.453 361.393 409.645V403.747H359.661V402.49H361.393V400.188H363.019ZM368.327 403.642C369.048 402.757 369.985 402.314 371.14 402.314C373.149 402.314 374.163 403.448 374.181 405.716V412H372.555V405.707C372.549 405.021 372.391 404.515 372.08 404.187C371.775 403.858 371.298 403.694 370.647 403.694C370.12 403.694 369.657 403.835 369.259 404.116C368.86 404.397 368.55 404.767 368.327 405.224V412H366.701V398.5H368.327V403.642ZM378.382 412H376.756V402.49H378.382V412ZM376.624 399.968C376.624 399.704 376.703 399.481 376.861 399.3C377.025 399.118 377.266 399.027 377.582 399.027C377.898 399.027 378.139 399.118 378.303 399.3C378.467 399.481 378.549 399.704 378.549 399.968C378.549 400.231 378.467 400.451 378.303 400.627C378.139 400.803 377.898 400.891 377.582 400.891C377.266 400.891 377.025 400.803 376.861 400.627C376.703 400.451 376.624 400.231 376.624 399.968ZM382.53 402.49L382.583 403.686C383.31 402.771 384.259 402.314 385.431 402.314C387.44 402.314 388.454 403.448 388.472 405.716V412H386.846V405.707C386.84 405.021 386.682 404.515 386.371 404.187C386.066 403.858 385.589 403.694 384.938 403.694C384.411 403.694 383.948 403.835 383.55 404.116C383.151 404.397 382.841 404.767 382.618 405.224V412H380.992V402.49H382.53ZM403.606 412H395.222V410.831L399.651 405.909C400.308 405.165 400.759 404.562 401.005 404.099C401.257 403.63 401.383 403.146 401.383 402.648C401.383 401.98 401.181 401.433 400.776 401.005C400.372 400.577 399.833 400.363 399.159 400.363C398.351 400.363 397.721 400.595 397.27 401.058C396.824 401.515 396.602 402.153 396.602 402.974H394.976C394.976 401.796 395.354 400.844 396.109 400.117C396.871 399.391 397.888 399.027 399.159 399.027C400.349 399.027 401.289 399.341 401.98 399.968C402.672 400.589 403.018 401.418 403.018 402.455C403.018 403.715 402.215 405.215 400.609 406.955L397.182 410.673H403.606V412ZM412.193 407.702H413.969V409.029H412.193V412H410.559V409.029H404.731V408.071L410.462 399.203H412.193V407.702ZM406.577 407.702H410.559V401.427L410.365 401.778L406.577 407.702ZM421.694 403.642C422.415 402.757 423.353 402.314 424.507 402.314C426.517 402.314 427.53 403.448 427.548 405.716V412H425.922V405.707C425.916 405.021 425.758 404.515 425.447 404.187C425.143 403.858 424.665 403.694 424.015 403.694C423.487 403.694 423.024 403.835 422.626 404.116C422.228 404.397 421.917 404.767 421.694 405.224V412H420.068V398.5H421.694V403.642ZM429.552 407.157C429.552 406.226 429.733 405.388 430.097 404.644C430.466 403.899 430.976 403.325 431.626 402.921C432.282 402.517 433.029 402.314 433.867 402.314C435.162 402.314 436.208 402.763 437.005 403.659C437.808 404.556 438.209 405.748 438.209 407.236V407.351C438.209 408.276 438.03 409.108 437.673 409.847C437.321 410.579 436.814 411.15 436.152 411.561C435.496 411.971 434.74 412.176 433.885 412.176C432.596 412.176 431.55 411.728 430.747 410.831C429.95 409.935 429.552 408.748 429.552 407.271V407.157ZM431.187 407.351C431.187 408.405 431.43 409.252 431.916 409.891C432.408 410.529 433.064 410.849 433.885 410.849C434.711 410.849 435.367 410.526 435.854 409.882C436.34 409.231 436.583 408.323 436.583 407.157C436.583 406.114 436.334 405.271 435.836 404.626C435.344 403.976 434.688 403.65 433.867 403.65C433.064 403.65 432.417 403.97 431.925 404.608C431.433 405.247 431.187 406.161 431.187 407.351ZM446.119 411.06C445.486 411.804 444.558 412.176 443.333 412.176C442.319 412.176 441.546 411.883 441.013 411.297C440.485 410.705 440.219 409.832 440.213 408.678V402.49H441.839V408.634C441.839 410.075 442.425 410.796 443.597 410.796C444.839 410.796 445.665 410.333 446.075 409.407V402.49H447.701V412H446.154L446.119 411.06ZM454.776 403.949C454.53 403.908 454.264 403.888 453.977 403.888C452.91 403.888 452.187 404.342 451.806 405.25V412H450.18V402.49H451.762L451.788 403.589C452.321 402.739 453.077 402.314 454.056 402.314C454.372 402.314 454.612 402.355 454.776 402.438V403.949ZM461.816 409.478C461.816 409.038 461.649 408.698 461.315 408.458C460.987 408.212 460.41 408.001 459.584 407.825C458.764 407.649 458.11 407.438 457.624 407.192C457.144 406.946 456.786 406.653 456.552 406.313C456.323 405.974 456.209 405.569 456.209 405.101C456.209 404.321 456.537 403.662 457.193 403.123C457.855 402.584 458.699 402.314 459.725 402.314C460.803 402.314 461.676 402.593 462.344 403.149C463.018 403.706 463.354 404.418 463.354 405.285H461.72C461.72 404.84 461.529 404.456 461.148 404.134C460.773 403.812 460.299 403.65 459.725 403.65C459.133 403.65 458.67 403.779 458.336 404.037C458.002 404.295 457.835 404.632 457.835 405.048C457.835 405.44 457.99 405.736 458.301 405.936C458.611 406.135 459.171 406.325 459.979 406.507C460.794 406.688 461.453 406.905 461.957 407.157C462.461 407.409 462.833 407.714 463.073 408.071C463.319 408.423 463.442 408.854 463.442 409.363C463.442 410.213 463.103 410.896 462.423 411.411C461.743 411.921 460.861 412.176 459.777 412.176C459.016 412.176 458.342 412.041 457.756 411.771C457.17 411.502 456.71 411.127 456.376 410.646C456.048 410.16 455.884 409.636 455.884 409.073H457.51C457.539 409.618 457.756 410.052 458.16 410.374C458.57 410.69 459.109 410.849 459.777 410.849C460.393 410.849 460.885 410.726 461.254 410.479C461.629 410.228 461.816 409.894 461.816 409.478Z" fill="black"/>
<path d="M330.5 324.875L336.625 292.5H345.969L335.875 338H326.438L319.031 307.562L311.625 338H302.188L292.094 292.5H301.438L307.594 324.812L315.094 292.5H323.031L330.5 324.875ZM359.281 307.875C361.677 305 364.688 303.562 368.312 303.562C375.646 303.562 379.365 307.823 379.469 316.344V338H370.438V316.594C370.438 314.656 370.021 313.229 369.188 312.312C368.354 311.375 366.969 310.906 365.031 310.906C362.385 310.906 360.469 311.927 359.281 313.969V338H350.25V290H359.281V307.875ZM384.875 320.781C384.875 317.427 385.521 314.438 386.812 311.812C388.104 309.188 389.958 307.156 392.375 305.719C394.812 304.281 397.635 303.562 400.844 303.562C405.406 303.562 409.125 304.958 412 307.75C414.896 310.542 416.51 314.333 416.844 319.125L416.906 321.438C416.906 326.625 415.458 330.792 412.562 333.938C409.667 337.062 405.781 338.625 400.906 338.625C396.031 338.625 392.135 337.062 389.219 333.938C386.323 330.812 384.875 326.562 384.875 321.188V320.781ZM393.906 321.438C393.906 324.646 394.51 327.104 395.719 328.812C396.927 330.5 398.656 331.344 400.906 331.344C403.094 331.344 404.802 330.51 406.031 328.844C407.26 327.156 407.875 324.469 407.875 320.781C407.875 317.635 407.26 315.198 406.031 313.469C404.802 311.74 403.073 310.875 400.844 310.875C398.635 310.875 396.927 311.74 395.719 313.469C394.51 315.177 393.906 317.833 393.906 321.438ZM421.062 320.781C421.062 317.427 421.708 314.438 423 311.812C424.292 309.188 426.146 307.156 428.562 305.719C431 304.281 433.823 303.562 437.031 303.562C441.594 303.562 445.312 304.958 448.188 307.75C451.083 310.542 452.698 314.333 453.031 319.125L453.094 321.438C453.094 326.625 451.646 330.792 448.75 333.938C445.854 337.062 441.969 338.625 437.094 338.625C432.219 338.625 428.323 337.062 425.406 333.938C422.51 330.812 421.062 326.562 421.062 321.188V320.781ZM430.094 321.438C430.094 324.646 430.698 327.104 431.906 328.812C433.115 330.5 434.844 331.344 437.094 331.344C439.281 331.344 440.99 330.51 442.219 328.844C443.448 327.156 444.062 324.469 444.062 320.781C444.062 317.635 443.448 315.198 442.219 313.469C440.99 311.74 439.26 310.875 437.031 310.875C434.823 310.875 433.115 311.74 431.906 313.469C430.698 315.177 430.094 317.833 430.094 321.438ZM467.844 324.031H460.344L459.281 292.5H468.906L467.844 324.031ZM464.094 328.969C465.615 328.969 466.833 329.417 467.75 330.312C468.688 331.208 469.156 332.354 469.156 333.75C469.156 335.125 468.688 336.26 467.75 337.156C466.833 338.052 465.615 338.5 464.094 338.5C462.594 338.5 461.375 338.052 460.438 337.156C459.521 336.26 459.062 335.125 459.062 333.75C459.062 332.375 459.521 331.24 460.438 330.344C461.375 329.427 462.594 328.969 464.094 328.969ZM485.281 324.031H477.781L476.719 292.5H486.344L485.281 324.031ZM481.531 328.969C483.052 328.969 484.271 329.417 485.188 330.312C486.125 331.208 486.594 332.354 486.594 333.75C486.594 335.125 486.125 336.26 485.188 337.156C484.271 338.052 483.052 338.5 481.531 338.5C480.031 338.5 478.812 338.052 477.875 337.156C476.958 336.26 476.5 335.125 476.5 333.75C476.5 332.375 476.958 331.24 477.875 330.344C478.812 329.427 480.031 328.969 481.531 328.969ZM502.719 324.031H495.219L494.156 292.5H503.781L502.719 324.031ZM498.969 328.969C500.49 328.969 501.708 329.417 502.625 330.312C503.562 331.208 504.031 332.354 504.031 333.75C504.031 335.125 503.562 336.26 502.625 337.156C501.708 338.052 500.49 338.5 498.969 338.5C497.469 338.5 496.25 338.052 495.312 337.156C494.396 336.26 493.938 335.125 493.938 333.75C493.938 332.375 494.396 331.24 495.312 330.344C496.25 329.427 497.469 328.969 498.969 328.969Z" fill="#7008F4"/>
<rect x="10" y="11" width="787" height="225.443" rx="3" fill="#7008F4" fill-opacity="0.2"/>
<path d="M388.402 151.842V173.387C388.402 174.893 389.368 176.226 390.799 176.7C391.157 176.816 391.524 176.872 391.886 176.872C392.973 176.872 394.023 176.361 394.692 175.45L407.295 158.299L388.402 151.842Z" fill="#7008F4"/>
<path d="M457.782 70.6715C456.714 69.9143 455.311 69.8121 454.15 70.4207L349.626 125.005C348.391 125.651 347.661 126.97 347.764 128.359C347.87 129.753 348.795 130.942 350.11 131.392L379.167 141.324L441.049 88.4126L393.164 146.105L441.862 162.749C442.225 162.87 442.606 162.935 442.987 162.935C443.618 162.935 444.245 162.763 444.798 162.429C445.681 161.89 446.28 160.984 446.433 159.967L459.208 74.0256C459.399 72.7248 458.851 71.4334 457.782 70.6715Z" fill="#7008F4"/>
</g>
<defs>
<filter id="filter0_d" x="0" y="0" width="817" height="480.066" filterUnits="userSpaceOnUse" color-interpolation-filters="sRGB">
<feFlood flood-opacity="0" result="BackgroundImageFix"/>
<feColorMatrix in="SourceAlpha" type="matrix" values="0 0 0 0 0 0 0 0 0 0 0 0 0 0 0 0 0 0 127 0"/>
<feOffset dx="5" dy="4"/>
<feGaussianBlur stdDeviation="7.5"/>
<feColorMatrix type="matrix" values="0 0 0 0 0 0 0 0 0 0 0 0 0 0 0 0 0 0 0.1 0"/>
<feBlend mode="normal" in2="BackgroundImageFix" result="effect1_dropShadow"/>
<feBlend mode="normal" in="SourceGraphic" in2="effect1_dropShadow" result="shape"/>
</filter>
</defs>
</svg>
