<svg width="40" height="36" viewBox="0 0 40 36" fill="none" xmlns="http://www.w3.org/2000/svg">
<path fill-rule="evenodd" clip-rule="evenodd" d="M15.9999 10.0002L9.49992 16.5002C10.0591 16.7166 10.5206 16.9819 10.9139 17.2079L10.914 17.2079L10.914 17.2079L11.0399 17.2802C11.7799 17.7402 12.2199 18.0002 13.3399 18.0002C14.4599 18.0002 14.8999 17.7402 15.6399 17.2802L15.6652 17.2653C16.5826 16.7267 17.8201 16.0002 20.0198 16.0002C22.2398 16.0002 23.4798 16.7402 24.3798 17.2802L24.4014 17.293C25.1288 17.7256 25.5905 18.0002 26.6798 18.0002C27.7798 18.0002 28.2397 17.7402 28.9797 17.2802C29.2197 17.1402 29.4997 16.9802 29.7997 16.8202L16.9599 4.00028C13.8599 0.90031 10.9999 -0.0196822 5.99995 0.000317669V5.00027C9.63992 4.98027 11.7799 5.78027 13.9999 8.00025L15.9999 10.0002ZM8.97833 25.7072C8.25089 25.2746 7.78919 25 6.69994 25C5.59995 25 5.13996 25.26 4.39996 25.72L4.34135 25.7537C3.40835 26.2902 2.17415 27 0 27V23C1.11999 23 1.55999 22.74 2.29998 22.28C3.19997 21.7401 4.43996 21.0001 6.65994 21.0001C8.87992 21.0001 10.1199 21.7401 11.0199 22.28L11.0415 22.2929C11.7689 22.7255 12.2306 23 13.3199 23C14.4399 23 14.8799 22.74 15.6199 22.28C16.5199 21.7401 17.7598 21.0001 19.9798 21.0001C22.1998 21.0001 23.4398 21.7401 24.3398 22.28L24.3614 22.2929C25.0888 22.7255 25.5505 23 26.6398 23C27.7398 23 28.1998 22.74 28.9397 22.28C29.8397 21.7401 31.0797 21.0001 33.2997 21.0001C35.5197 21.0001 36.7597 21.7401 37.6597 22.28L37.6813 22.2929C38.4087 22.7255 38.8704 23 39.9596 23V27C37.7597 26.98 36.5397 26.26 35.6397 25.72L35.6181 25.7072C34.8907 25.2746 34.429 25 33.3397 25C32.2197 25 31.7797 25.26 31.0397 25.72C30.1397 26.26 28.8997 27 26.6798 27C24.4598 27 23.2198 26.26 22.3198 25.72L22.2982 25.7072C21.5708 25.2746 21.1091 25 20.0198 25C18.8998 25 18.4598 25.26 17.7198 25.72C16.8199 26.26 15.5799 27 13.3599 27C11.1399 27 9.89991 26.26 8.99992 25.72L8.97833 25.7072ZM33.3397 30C31.1197 30 29.8797 30.74 28.9797 31.28C28.2398 31.74 27.7798 32 26.6798 32C25.5905 32 25.1288 31.7254 24.4014 31.2928L24.3798 31.28C23.4798 30.74 22.2398 30 20.0198 30C17.8201 30 16.5826 30.7265 15.6652 31.2651L15.6399 31.28C14.8999 31.74 14.4599 32 13.3399 32C12.2199 32 11.7799 31.74 11.0399 31.28C10.1399 30.74 8.89992 30 6.67994 30C4.48026 30 3.24273 30.7265 2.32529 31.2651L2.29998 31.28C1.55999 31.74 1.11999 32 0 32V35.9999C2.19968 35.9999 3.43721 35.2734 4.35464 34.7348L4.37996 34.7199C5.11996 34.2599 5.57995 33.9999 6.67994 33.9999C7.77993 33.9999 8.23993 34.2599 8.97992 34.7199C9.87991 35.2599 11.1199 35.9999 13.3399 35.9999C15.5396 35.9999 16.7771 35.2734 17.6945 34.7348L17.7198 34.7199C18.4598 34.2599 18.8998 33.9999 20.0198 33.9999C21.1091 33.9999 21.5708 34.2745 22.2982 34.7071L22.3198 34.7199C23.2198 35.2599 24.4598 35.9999 26.6798 35.9999C28.8607 35.9999 30.0765 35.2858 30.9909 34.7486L31.0397 34.7199C31.7797 34.2599 32.2197 33.9999 33.3397 33.9999C34.429 33.9999 34.8907 34.2745 35.6181 34.7071L35.6397 34.7199C36.5397 35.2599 37.7797 35.9999 39.9996 35.9999V32C38.8797 32 38.4397 31.74 37.6997 31.28C36.7997 30.74 35.5597 30 33.3397 30ZM23.9998 5.0002C23.9998 2.2388 26.2383 0.000244138 28.9997 0.000244138C31.7611 0.000244138 33.9997 2.2388 33.9997 5.0002C33.9997 7.7616 31.7611 10.0002 28.9997 10.0002C26.2383 10.0002 23.9998 7.7616 23.9998 5.0002Z" fill="#7008F4"/>
</svg>
