<svg xmlns="http://www.w3.org/2000/svg" viewBox="0 0 29.58 25.91"><defs><style>.cls-1{fill:#fff;}.cls-1,.cls-2{fill-rule:evenodd;}.cls-2{fill:#efeded;}</style></defs><g id="Layer_2" data-name="Layer 2"><g id="Layer_1-2" data-name="Layer 1"><g id="Layer_2-2" data-name="Layer 2"><g id="Layer_1-2-2" data-name="Layer 1-2"><path class="cls-1" d="M22.76.15,9.41,0S7.79,16.09,5,17.86s-3.26,1.52-3.26,1.52L0,25.74s12.86,1.12,15.86-2.42S22.76.15,22.76.15"/><path class="cls-1" d="M19.8,4.89h3.87a5.94,5.94,0,0,1,5.91,5.92v3.87a5.94,5.94,0,0,1-5.91,5.92H19.8a5.93,5.93,0,0,1-5.92-5.92V10.81A6,6,0,0,1,19.8,4.89"/><path class="cls-2" d="M19.8,4.89h1.9L17.53,20c-.15.54-3.65-1.64-3.65-5.29v-3.9A6,6,0,0,1,19.8,4.89"/></g></g></g></g></svg>