<svg width="17" height="30" viewBox="0 0 17 30" fill="none" xmlns="http://www.w3.org/2000/svg">
<path d="M15.7183 0.00623044L11.8006 0C7.39933 0 4.555 2.89248 4.555 7.36937V10.7671H0.616009C0.275633 10.7671 0 11.0407 0 11.378V16.301C0 16.6384 0.275947 16.9116 0.616009 16.9116H4.555V29.3339C4.555 29.6712 4.83064 29.9444 5.17101 29.9444H10.3103C10.6507 29.9444 10.9263 29.6709 10.9263 29.3339V16.9116H15.5319C15.8723 16.9116 16.1479 16.6384 16.1479 16.301L16.1498 11.378C16.1498 11.216 16.0847 11.0609 15.9694 10.9463C15.854 10.8316 15.6969 10.7671 15.5335 10.7671H10.9263V7.88681C10.9263 6.5024 11.2591 5.79961 13.0785 5.79961L15.7176 5.79867C16.0577 5.79867 16.3333 5.52516 16.3333 5.18809V0.616814C16.3333 0.280058 16.058 0.00685349 15.7183 0.00623044Z" fill="#FFFDFF"/>
</svg>
