<svg width="30" height="30" viewBox="0 0 30 30" fill="none" xmlns="http://www.w3.org/2000/svg">
<g clip-path="url(#clip0)">
<path d="M17.1632 15.2407C17.1632 16.6501 16.0206 17.7928 14.6112 17.7928C13.2018 17.7928 12.0591 16.6501 12.0591 15.2407C12.0591 13.8313 13.2018 12.6887 14.6112 12.6887C16.0206 12.6887 17.1632 13.8313 17.1632 15.2407Z" fill="#FFFDFF"/>
<path d="M18.9213 7.52779H10.301C8.42457 7.52779 6.89819 9.05416 6.89819 10.9306V19.5509C6.89819 21.4273 8.42457 22.9537 10.301 22.9537H18.9213C20.7977 22.9537 22.3241 21.4273 22.3241 19.5509V10.9306C22.3241 9.05416 20.7977 7.52779 18.9213 7.52779ZM14.6112 19.4942C12.2658 19.4942 10.3577 17.5861 10.3577 15.2407C10.3577 12.8954 12.2658 10.9873 14.6112 10.9873C16.9565 10.9873 18.8646 12.8954 18.8646 15.2407C18.8646 17.5861 16.9565 19.4942 14.6112 19.4942ZM19.4885 11.2141C19.0186 11.2141 18.6378 10.8333 18.6378 10.3634C18.6378 9.89356 19.0186 9.51274 19.4885 9.51274C19.9583 9.51274 20.3392 9.89356 20.3392 10.3634C20.3392 10.8333 19.9583 11.2141 19.4885 11.2141Z" fill="#FFFDFF"/>
<path d="M21.4734 0.722229H7.7489C3.52733 0.722229 0.0926514 4.15691 0.0926514 8.37848V22.103C0.0926514 26.3246 3.52733 29.7593 7.7489 29.7593H21.4734C25.695 29.7593 29.1297 26.3246 29.1297 22.103V8.37848C29.1297 4.15691 25.695 0.722229 21.4734 0.722229ZM24.0255 19.5509C24.0255 22.3653 21.7357 24.6551 18.9214 24.6551H10.301C7.4866 24.6551 5.19682 22.3653 5.19682 19.5509V10.9306C5.19682 8.11618 7.4866 5.8264 10.301 5.8264H18.9214C21.7357 5.8264 24.0255 8.11618 24.0255 10.9306V19.5509Z" fill="#FFFDFF"/>
</g>
<defs>
<clipPath id="clip0">
<rect width="29.037" height="29.037" fill="white" transform="translate(0.0926514 0.722229)"/>
</clipPath>
</defs>
</svg>
