<svg width="16" height="16" viewBox="0 0 16 16" fill="none" xmlns="http://www.w3.org/2000/svg">
<path d="M1.88491 13.186V11.2843H7.53125V10.32H3.29231V0H12.7077V10.32H8.46875V11.2843H14.1151V13.186H16V16H11.2927V13.186H13.1776V12.2218H8.46875V13.186H10.3537V16H5.64631V13.186H7.53125V12.2218H2.82241V13.186H4.70731V16H0V13.186H1.88491ZM11.7702 0.9375H4.22978V9.3825H11.7702V0.9375ZM12.2302 15.0625H15.0625V14.1235H12.2302V15.0625ZM6.58384 15.0625H9.41619V14.1235H6.58384V15.0625ZM0.9375 15.0625H3.76984V14.1235H0.9375V15.0625Z" fill="#7008F4"/>
<path d="M10.8316 1.87646H5.16842V2.81396H10.8316V1.87646Z" fill="#7008F4"/>
<path d="M10.8316 3.75293H5.16842V4.69043H10.8316V3.75293Z" fill="#7008F4"/>
<path d="M10.8316 5.62939H5.16842V6.56689H10.8316V5.62939Z" fill="#7008F4"/>
<path d="M10.8316 7.5061H5.16842V8.4436H10.8316V7.5061Z" fill="#7008F4"/>
</svg>
