<svg width="16" height="16" viewBox="0 0 16 16" fill="none" xmlns="http://www.w3.org/2000/svg">
<g clip-path="url(#clip0)">
<path d="M6.41194 4.48999H9.38878C9.64766 4.48999 9.85753 4.28012 9.85753 4.02124C9.85753 3.76237 9.64766 3.55249 9.38878 3.55249H6.41194C6.15306 3.55249 5.94319 3.76237 5.94319 4.02124C5.94319 4.28012 6.15303 4.48999 6.41194 4.48999Z" fill="#7008F4"/>
<path d="M11.4384 0H0.46875C0.209875 0 0 0.209875 0 0.46875V15.5312C0 15.7901 0.209875 16 0.46875 16H11.4384C11.6973 16 11.9072 15.7901 11.9072 15.5312V0.46875C11.9072 0.209875 11.6973 0 11.4384 0ZM10.9697 15.0625H0.9375V0.9375H10.9697V15.0625Z" fill="#7008F4"/>
<path d="M16 11.3594V1.59097C16 0.713719 15.2863 0 14.409 0C13.5318 0 12.818 0.713719 12.818 1.59097V11.3594C12.818 11.604 13.0054 11.8046 13.2444 11.826L12.846 12.9266C12.8041 13.0423 12.8094 13.1699 12.8608 13.2817L13.983 15.7268C14.0594 15.8933 14.2258 16 14.409 16C14.5922 16 14.7587 15.8933 14.8351 15.7268L15.9573 13.2817C16.0086 13.1698 16.0139 13.0423 15.972 12.9266L15.5737 11.826C15.8126 11.8046 16 11.604 16 11.3594ZM13.7555 10.8907V3.90331H15.0625V10.8907H13.7555V10.8907ZM14.409 0.9375C14.7693 0.9375 15.0625 1.23066 15.0625 1.59097V2.96581H13.7555V1.59097C13.7555 1.23066 14.0487 0.9375 14.409 0.9375ZM14.409 14.4075L13.7929 13.0652L14.2406 11.8282H14.5774L15.0252 13.0652L14.409 14.4075Z" fill="#7008F4"/>
<path d="M2.83441 4.91249C2.92231 5.0004 3.04153 5.04981 3.16584 5.04981C3.29016 5.04981 3.40941 5.0004 3.49728 4.91252L4.92113 3.48868C5.10419 3.30562 5.10419 3.00884 4.92113 2.82577C4.73809 2.64271 4.44128 2.64271 4.25822 2.82577L3.16584 3.91815L2.82628 3.57852C2.64328 3.39546 2.34647 3.39546 2.16337 3.57852C1.98031 3.76159 1.98031 4.05837 2.16337 4.24143L2.83441 4.91249Z" fill="#7008F4"/>
<path d="M6.41194 7.33398H9.38878C9.64766 7.33398 9.85753 7.12411 9.85753 6.86523C9.85753 6.60636 9.64766 6.39648 9.38878 6.39648H6.41194C6.15306 6.39648 5.94319 6.60636 5.94319 6.86523C5.94319 7.12411 6.15303 7.33398 6.41194 7.33398Z" fill="#7008F4"/>
<path d="M2.83441 7.75624C2.92231 7.84415 3.04153 7.89356 3.16584 7.89356C3.29016 7.89356 3.40941 7.84415 3.49728 7.75627L4.92113 6.33243C5.10419 6.14937 5.10419 5.85259 4.92113 5.66952C4.73809 5.48646 4.44128 5.48646 4.25822 5.66952L3.16584 6.7619L2.82628 6.42234C2.64328 6.23927 2.34647 6.23927 2.16337 6.42234C1.98031 6.6054 1.98031 6.90218 2.16337 7.08524L2.83441 7.75624Z" fill="#7008F4"/>
<path d="M6.41194 10.1777H9.38878C9.64766 10.1777 9.85753 9.96786 9.85753 9.70898C9.85753 9.45011 9.64766 9.24023 9.38878 9.24023H6.41194C6.15306 9.24023 5.94319 9.45011 5.94319 9.70898C5.94319 9.96786 6.15303 10.1777 6.41194 10.1777Z" fill="#7008F4"/>
<path d="M6.41194 13.1306H9.38878C9.64766 13.1306 9.85753 12.9207 9.85753 12.6619C9.85753 12.403 9.64766 12.1931 9.38878 12.1931H6.41194C6.15306 12.1931 5.94319 12.403 5.94319 12.6619C5.94319 12.9207 6.15303 13.1306 6.41194 13.1306Z" fill="#7008F4"/>
<path d="M2.8344 10.6002C2.92231 10.6881 3.04153 10.7375 3.16584 10.7375C3.29015 10.7375 3.4094 10.6881 3.49728 10.6002L4.92113 9.17641C5.10419 8.99335 5.10419 8.69657 4.92113 8.51351C4.73809 8.33044 4.44128 8.33047 4.25822 8.51351L3.16584 9.60588L2.82628 9.26626C2.64328 9.08319 2.34646 9.08319 2.16337 9.26626C1.98028 9.44932 1.98031 9.7461 2.16337 9.92916L2.8344 10.6002Z" fill="#7008F4"/>
</g>
<defs>
<clipPath id="clip0">
<rect width="16" height="16" fill="white"/>
</clipPath>
</defs>
</svg>
