<svg width="16" height="16" viewBox="0 0 16 16" fill="none" xmlns="http://www.w3.org/2000/svg">
<path d="M13.5512 8.7937C13.273 8.5155 12.9031 8.3623 12.5097 8.3623C12.1162 8.3623 11.7464 8.51538 11.4682 8.7937L10.4033 9.85864C10.3965 8.53406 9.31703 7.4585 7.99098 7.4585C6.66481 7.4585 5.58546 8.53406 5.57863 9.85852L4.51369 8.79358C4.23549 8.5155 3.86562 8.3623 3.47218 8.3623C3.07875 8.3623 2.70888 8.51538 2.4308 8.7937C1.85646 9.36792 1.85646 10.3024 2.43068 10.8767L5.51393 13.9598V15.5312C5.51393 15.7902 5.72377 16 5.98268 16H9.99928C10.2582 16 10.468 15.7902 10.468 15.5312V13.9598L13.5513 10.8767C14.1255 10.3024 14.1255 9.36792 13.5512 8.7937ZM7.99098 8.396C8.80434 8.396 9.46608 9.05774 9.46608 9.87122C9.46608 10.6846 8.80434 11.3464 7.99098 11.3464C7.17751 11.3464 6.51576 10.6846 6.51576 9.87122C6.51576 9.05774 7.17751 8.396 7.99098 8.396ZM12.8883 10.2137L9.66786 13.4342C9.57997 13.5222 9.53053 13.6414 9.53053 13.7657V15.0625H6.45143V13.7657C6.45143 13.6414 6.40199 13.5221 6.3141 13.4342L3.09352 10.2137C2.88478 10.005 2.8849 9.66528 3.09364 9.45654C3.19472 9.35547 3.32924 9.2998 3.47218 9.2998C3.61525 9.2998 3.74965 9.35547 3.85085 9.45654L6.54079 12.1466C6.62868 12.2345 6.74794 12.2839 6.87221 12.2839H9.10964C9.23403 12.2839 9.35329 12.2345 9.44118 12.1466L12.1311 9.45654C12.2323 9.35547 12.3667 9.2998 12.5098 9.2998C12.6527 9.2998 12.7872 9.35535 12.8883 9.45654C13.0971 9.66528 13.0971 10.005 12.8883 10.2137Z" fill="#7008F4"/>
<path d="M5.91833 4.44177L5.58947 6.3584C5.55932 6.5343 5.63158 6.71204 5.77587 6.81689C5.85754 6.87622 5.95434 6.90649 6.05151 6.90649C6.12609 6.90649 6.20092 6.88867 6.26965 6.85254L7.99096 5.94763L9.71227 6.85254C9.78076 6.88867 9.85571 6.90649 9.93029 6.90649C9.93078 6.90649 9.93127 6.90649 9.93163 6.90649C10.1902 6.90601 10.3998 6.69629 10.3998 6.43774C10.3998 6.40173 10.3957 6.3667 10.3881 6.33289L10.0636 4.44177L11.4562 3.08435C11.584 2.95984 11.6299 2.77356 11.5748 2.60376C11.5196 2.43408 11.3729 2.31042 11.1964 2.28479L9.27197 2.00513L8.41125 0.26123C8.33227 0.101318 8.16931 0 7.99096 0C7.81249 0 7.64953 0.101318 7.57055 0.26123L6.70995 2.00513L4.78552 2.28479C4.60888 2.31042 4.46227 2.43408 4.4071 2.60376C4.35192 2.77356 4.39794 2.95984 4.52575 3.08435L5.91833 4.44177ZM7.08862 2.89746C7.24133 2.87524 7.37316 2.77942 7.44152 2.64111L7.99096 1.52795L8.54028 2.64111C8.60851 2.77942 8.74047 2.87524 8.89318 2.89746L10.1217 3.07605L9.23278 3.9425C9.12231 4.05017 9.07189 4.20532 9.09789 4.35742L9.30773 5.58081L8.2091 5.00317C8.14074 4.96716 8.06579 4.94922 7.99096 4.94922C7.91601 4.94922 7.84106 4.96716 7.77282 5.00317L6.67407 5.58081L6.88403 4.35742C6.91015 4.20532 6.85973 4.05017 6.74926 3.9425L5.86022 3.07593L7.08862 2.89746Z" fill="#7008F4"/>
</svg>
