<svg width="39" height="32" viewBox="0 0 39 32" fill="none" xmlns="http://www.w3.org/2000/svg">
<path d="M39 4.55979C37.5828 5.1792 36.0726 5.58977 34.4981 5.78912C36.1179 4.82559 37.3541 3.31148 37.9353 1.48648C36.4251 2.38355 34.7578 3.0172 32.9809 3.37081C31.5469 1.84958 29.5032 0.90741 27.2737 0.90741C22.9481 0.90741 19.4657 4.40554 19.4657 8.69394C19.4657 9.31098 19.5181 9.90428 19.6467 10.4691C13.1512 10.1535 7.40353 7.05168 3.5424 2.3266C2.86831 3.49185 2.47291 4.8256 2.47291 6.26139C2.47291 8.95737 3.86635 11.3472 5.9434 12.7308C4.68812 12.7071 3.45665 12.344 2.41336 11.772C2.41336 11.7957 2.41336 11.8266 2.41336 11.8574C2.41336 15.6404 5.12163 18.7825 8.67311 19.5063C8.03713 19.6796 7.34399 19.7626 6.62464 19.7626C6.12443 19.7626 5.61946 19.7342 5.14545 19.6297C6.15778 22.7126 9.0304 24.979 12.4461 25.0525C9.78786 27.1244 6.41265 28.3727 2.75874 28.3727C2.118 28.3727 1.50346 28.3442 0.888916 28.2659C4.34988 30.4896 8.45159 31.7593 12.8749 31.7593C27.2523 31.7593 35.1127 19.8932 35.1127 9.60763C35.1127 9.26352 35.1008 8.93126 35.0841 8.60139C36.6348 7.50496 37.9377 6.13561 39 4.55979Z" fill="#FFFDFF"/>
</svg>
