<svg width="16" height="16" viewBox="0 0 16 16" fill="none" xmlns="http://www.w3.org/2000/svg">
<path d="M9.77943 13.2742L8.625 14.415V8.625C8.625 8.27981 8.34518 8 8 8C7.65481 8 7.375 8.27981 7.375 8.625V14.3532L6.28306 13.2742C6.03753 13.0316 5.64181 13.0339 5.39918 13.2794C5.15656 13.525 5.15893 13.9207 5.40443 14.1633L6.70409 15.4476C7.05868 15.8039 7.52984 16 8.03125 16C8.53265 16 9.00381 15.8039 9.3584 15.4476L10.6581 14.1633C10.9036 13.9207 10.9059 13.525 10.6633 13.2794C10.4207 13.0339 10.025 13.0315 9.77943 13.2742Z" fill="#7008F4"/>
<path d="M15.375 8.625C15.0298 8.625 14.75 8.90481 14.75 9.25C14.75 9.93925 14.1892 10.5 13.5 10.5H10.5C10.1548 10.5 9.875 10.7798 9.875 11.125C9.875 11.4702 10.1548 11.75 10.5 11.75H13.5C14.8785 11.75 16 10.6285 16 9.25C16 8.90481 15.7202 8.625 15.375 8.625Z" fill="#7008F4"/>
<path d="M9.72412 7.93163C9.82881 7.99903 9.94603 8.03125 10.0619 8.03122C10.2673 8.03122 10.4685 7.93006 10.588 7.74453C10.9598 7.16722 11.1562 6.50856 11.1562 5.83984C11.1562 3.97888 9.74034 2.46484 8 2.46484C6.25966 2.46484 4.84375 3.97888 4.84375 5.83984C4.84375 6.55566 5.02494 7.19728 5.38228 7.74684C5.57044 8.03622 5.95759 8.11828 6.24694 7.93013C6.53631 7.74197 6.61837 7.35484 6.43022 7.06547C6.20697 6.72206 6.09375 6.30975 6.09375 5.83984C6.09375 4.66813 6.94887 3.71484 8 3.71484C9.05113 3.71484 9.90625 4.66813 9.90625 5.83984C9.90625 6.26803 9.77859 6.69266 9.53703 7.06775C9.35016 7.358 9.43391 7.74475 9.72412 7.93163Z" fill="#7008F4"/>
<path d="M12.9688 6.46875C13.3139 6.46875 13.5938 6.18893 13.5938 5.84375C13.5938 5.49857 13.3139 5.21875 12.9688 5.21875C12.6236 5.21875 12.3438 5.49857 12.3438 5.84375C12.3438 6.18893 12.6236 6.46875 12.9688 6.46875Z" fill="#7008F4"/>
<path d="M3.03125 6.46875C3.37643 6.46875 3.65625 6.18893 3.65625 5.84375C3.65625 5.49857 3.37643 5.21875 3.03125 5.21875C2.68607 5.21875 2.40625 5.49857 2.40625 5.84375C2.40625 6.18893 2.68607 6.46875 3.03125 6.46875Z" fill="#7008F4"/>
<path d="M13.5 0H2.5C1.1215 0 0 1.1215 0 2.5V9.25C0 10.6285 1.1215 11.75 2.5 11.75H5.5C5.84519 11.75 6.125 11.4702 6.125 11.125C6.125 10.7798 5.84519 10.5 5.5 10.5H2.5C1.81075 10.5 1.25 9.93925 1.25 9.25V2.5C1.25 1.81075 1.81075 1.25 2.5 1.25H13.5C14.1892 1.25 14.75 1.81075 14.75 2.5V6.125C14.75 6.47019 15.0298 6.75 15.375 6.75C15.7202 6.75 16 6.47019 16 6.125V2.5C16 1.1215 14.8785 0 13.5 0Z" fill="#7008F4"/>
</svg>
